ffmpeg started on 2025-06-19 at 09:50:31
Report written to "D:\Convert\FFMetrics\reports\ssim_report-6.txt"
Log level: 32
Command line:
ffmpeg -hide_banner -nostdin -i "G:\\\xc0\xed\xe8\xec\xe5\\[\xd2\xee\xef-4]\\Fate\\\xc4\xee\xef\xee\xeb\xed\xe5\xed\xe8\xe5 - \xcf\xee\xf1\xeb\xe5\xe4\xed\xe8\xe9 \xe2\xfb\xe7\xee\xe2 \xed\xe0 \xe1\xe8\xf1\\Fate_Extra_Last_Encore_[10]_[AniLibria_TV]_[HDTV-Rip_720p]_HEVC.mkv" -i "G:\\\xc0\xed\xe8\xec\xe5\\[\xd2\xee\xef-4]\\Fate\\\xc4\xee\xef\xee\xeb\xed\xe5\xed\xe8\xe5 - \xcf\xee\xf1\xeb\xe5\xe4\xed\xe8\xe9 \xe2\xfb\xe7\xee\xe2 \xed\xe0 \xe1\xe8\xf1\\Fate_Extra_Last_Encore_[10]_[AniLibria_TV]_[HDTV-Rip_720p].mkv" -lavfi "[0:v]settb=AVTB,setpts=PTS-STARTPTS,format=pix_fmts=yuv420p10,fps=24000/1001,scale=1280:720:flags=bicubic[main];[1:v]settb=AVTB,setpts=PTS-STARTPTS,format=pix_fmts=yuv420p,fps=24000/1001,scale=1280:720:flags=bicubic[ref];[main][ref]ssim=eof_action=endall:stats_file='D\\:/Convert/FFMetrics/logs/ssim_logfile-6.txt'" -f null -
Input #0, matroska,webm, from 'G:\Аниме\[Топ-4]\Fate\Дополнение - Последний вызов на бис\Fate_Extra_Last_Encore_[10]_[AniLibria_TV]_[HDTV-Rip_720p]_HEVC.mkv':
  Metadata:
    ENCODER         : Lavf61.7.100
  Duration: 00:24:00.11, start: -0.021000, bitrate: 942 kb/s
  Stream #0:0(jpn): Video: hevc (Main 10), yuv420p10le(tv, bt709, progressive), 1280x720 [SAR 1:1 DAR 16:9], 23.81 fps, 23.81 tbr, 1k tbn (default)
      Metadata:
        ENCODER         : Lavc61.19.100 libx265
        BPS             : 744471
        DURATION        : 00:24:00.012000000
        NUMBER_OF_FRAMES: 34524
        NUMBER_OF_BYTES : 134005965
        _STATISTICS_WRITING_APP: mkvpropedit v66.0.0 ('Josie') 64-bit
        _STATISTICS_WRITING_DATE_UTC: 2025-06-17 13:23:51
        _STATISTICS_TAGS: BPS DURATION NUMBER_OF_FRAMES NUMBER_OF_BYTES
  Stream #0:1(rus): Audio: aac (LC), 48000 Hz, stereo, fltp (default)
      Metadata:
        title           : Ados Amikiri Anzen Hekomi Silv
        ENCODER         : Lavc61.19.100 aac
        BPS             : 193505
        DURATION        : 00:24:00.085000000
        NUMBER_OF_FRAMES: 67505
        NUMBER_OF_BYTES : 34833066
        _STATISTICS_WRITING_APP: mkvpropedit v66.0.0 ('Josie') 64-bit
        _STATISTICS_WRITING_DATE_UTC: 2025-06-17 13:23:51
        _STATISTICS_TAGS: BPS DURATION NUMBER_OF_FRAMES NUMBER_OF_BYTES
  Stream #0:2(rus): Subtitle: ass (ssa) (default) (forced)
      Metadata:
        title           : Надписи
        BPS             : 15
        DURATION        : 00:21:36.870000000
        NUMBER_OF_FRAMES: 13
        NUMBER_OF_BYTES : 2481
        _STATISTICS_WRITING_APP: mkvpropedit v66.0.0 ('Josie') 64-bit
        _STATISTICS_WRITING_DATE_UTC: 2025-06-17 13:23:51
        _STATISTICS_TAGS: BPS DURATION NUMBER_OF_FRAMES NUMBER_OF_BYTES
  Stream #0:3(rus): Subtitle: ass (ssa)
      Metadata:
        title           : Полные
        BPS             : 149
        DURATION        : 00:23:37.500000000
        NUMBER_OF_FRAMES: 286
        NUMBER_OF_BYTES : 26544
        _STATISTICS_WRITING_APP: mkvpropedit v66.0.0 ('Josie') 64-bit
        _STATISTICS_WRITING_DATE_UTC: 2025-06-17 13:23:51
        _STATISTICS_TAGS: BPS DURATION NUMBER_OF_FRAMES NUMBER_OF_BYTES
Input #1, matroska,webm, from 'G:\Аниме\[Топ-4]\Fate\Дополнение - Последний вызов на бис\Fate_Extra_Last_Encore_[10]_[AniLibria_TV]_[HDTV-Rip_720p].mkv':
  Metadata:
    encoder         : libebml v1.4.2 + libmatroska v1.6.4
    creation_time   : 2024-12-27T09:59:48.000000Z
  Duration: 00:24:00.09, start: 0.000000, bitrate: 2118 kb/s
  Stream #1:0(jpn): Video: h264 (Main), yuv420p(tv, bt709, progressive), 1280x720, SAR 1:1 DAR 16:9, 23.81 fps, 23.81 tbr, 1k tbn (default)
      Metadata:
        BPS             : 1913247
        DURATION        : 00:24:00.002000000
        NUMBER_OF_FRAMES: 34524
        NUMBER_OF_BYTES : 344384967
        _STATISTICS_WRITING_APP: mkvmerge v66.0.0 ('Josie') 64-bit
        _STATISTICS_WRITING_DATE_UTC: 2024-12-27 09:59:48
        _STATISTICS_TAGS: BPS DURATION NUMBER_OF_FRAMES NUMBER_OF_BYTES
  Stream #1:1(rus): Audio: aac (LC), 48000 Hz, stereo, fltp (default)
      Metadata:
        title           : Ados Amikiri Anzen Hekomi Silv
        BPS             : 192092
        DURATION        : 00:24:00.085000000
        NUMBER_OF_FRAMES: 67504
        NUMBER_OF_BYTES : 34578693
        _STATISTICS_WRITING_APP: mkvmerge v66.0.0 ('Josie') 64-bit
        _STATISTICS_WRITING_DATE_UTC: 2024-12-27 09:59:48
        _STATISTICS_TAGS: BPS DURATION NUMBER_OF_FRAMES NUMBER_OF_BYTES
  Stream #1:2(rus): Subtitle: ass (ssa) (default) (forced)
      Metadata:
        title           : Надписи
        BPS             : 15
        DURATION        : 00:21:36.870000000
        NUMBER_OF_FRAMES: 13
        NUMBER_OF_BYTES : 2481
        _STATISTICS_WRITING_APP: mkvmerge v66.0.0 ('Josie') 64-bit
        _STATISTICS_WRITING_DATE_UTC: 2024-12-27 09:59:48
        _STATISTICS_TAGS: BPS DURATION NUMBER_OF_FRAMES NUMBER_OF_BYTES
  Stream #1:3(rus): Subtitle: ass (ssa)
      Metadata:
        title           : Полные
        BPS             : 149
        DURATION        : 00:23:37.500000000
        NUMBER_OF_FRAMES: 286
        NUMBER_OF_BYTES : 26544
        _STATISTICS_WRITING_APP: mkvmerge v66.0.0 ('Josie') 64-bit
        _STATISTICS_WRITING_DATE_UTC: 2024-12-27 09:59:48
        _STATISTICS_TAGS: BPS DURATION NUMBER_OF_FRAMES NUMBER_OF_BYTES
  Stream #1:4: Attachment: ttf
      Metadata:
        filename        : KozGoPr6N-Medium_0.otf
        mimetype        : application/x-truetype-font
  Stream #1:5: Attachment: ttf
      Metadata:
        filename        : 9511(1).ttf
        mimetype        : application/x-truetype-font
  Stream #1:6: Attachment: ttf
      Metadata:
        filename        : arx.ttf
        mimetype        : application/x-truetype-font
  Stream #1:7: Attachment: ttf
      Metadata:
        filename        : BwSurcoDEMO-Black.otf
        mimetype        : application/x-truetype-font
  Stream #1:8: Attachment: ttf
      Metadata:
        filename        : BwSurcoDEMO-BlackItalic.otf
        mimetype        : application/x-truetype-font
  Stream #1:9: Attachment: ttf
      Metadata:
        filename        : BwSurcoDEMO-Bold.otf
        mimetype        : application/x-truetype-font
  Stream #1:10: Attachment: ttf
      Metadata:
        filename        : BwSurcoDEMO-BoldItalic.otf
        mimetype        : application/x-truetype-font
  Stream #1:11: Attachment: ttf
      Metadata:
        filename        : BwSurcoDEMO-Book.otf
        mimetype        : application/x-truetype-font
  Stream #1:12: Attachment: ttf
      Metadata:
        filename        : BwSurcoDEMO-BookItalic.otf
        mimetype        : application/x-truetype-font
  Stream #1:13: Attachment: ttf
      Metadata:
        filename        : BwSurcoDEMO-Light.otf
        mimetype        : application/x-truetype-font
  Stream #1:14: Attachment: ttf
      Metadata:
        filename        : BwSurcoDEMO-LightItalic.otf
        mimetype        : application/x-truetype-font
  Stream #1:15: Attachment: ttf
      Metadata:
        filename        : BwSurcoDEMO-Medium.otf
        mimetype        : application/x-truetype-font
  Stream #1:16: Attachment: ttf
      Metadata:
        filename        : BwSurcoDEMO-MediumItalic.otf
        mimetype        : application/x-truetype-font
  Stream #1:17: Attachment: ttf
      Metadata:
        filename        : BwSurcoDEMO-Regular.otf
        mimetype        : application/x-truetype-font
  Stream #1:18: Attachment: ttf
      Metadata:
        filename        : BwSurcoDEMO-RegularItalic.otf
        mimetype        : application/x-truetype-font
Stream mapping:
  Stream #0:0 (hevc) -> settb:default
  Stream #1:0 (h264) -> settb:default
  ssim:default -> Stream #0:0 (wrapped_avframe)
  Stream #0:1 -> #0:1 (aac (native) -> pcm_s16le (native))
Output #0, null, to 'pipe:':
  Metadata:
    encoder         : Lavf61.7.100
  Stream #0:0: Video: wrapped_avframe, yuv420p10le(tv, bt709, progressive), 1280x720 [SAR 1:1 DAR 16:9], q=2-31, 200 kb/s, 23.98 fps, 23.98 tbn
      Metadata:
        encoder         : Lavc61.19.100 wrapped_avframe
  Stream #0:1(rus): Audio: pcm_s16le, 48000 Hz, stereo, s16, 1536 kb/s (default)
      Metadata:
        title           : Ados Amikiri Anzen Hekomi Silv
        _STATISTICS_TAGS: BPS DURATION NUMBER_OF_FRAMES NUMBER_OF_BYTES
        BPS             : 193505
        DURATION        : 00:24:00.085000000
        NUMBER_OF_FRAMES: 67505
        NUMBER_OF_BYTES : 34833066
        _STATISTICS_WRITING_APP: mkvpropedit v66.0.0 ('Josie') 64-bit
        _STATISTICS_WRITING_DATE_UTC: 2025-06-17 13:23:51
        encoder         : Lavc61.19.100 pcm_s16le
frame=  474 fps=0.0 q=-0.0 size=N/A time=00:00:19.76 bitrate=N/A speed=38.4x    frame=  971 fps=951 q=-0.0 size=N/A time=00:00:40.49 bitrate=N/A speed=39.6x    frame= 1488 fps=962 q=-0.0 size=N/A time=00:01:02.06 bitrate=N/A speed=40.1x    frame= 1985 fps=962 q=-0.0 size=N/A time=00:01:22.79 bitrate=N/A speed=40.1x    frame= 2497 fps=970 q=-0.0 size=N/A time=00:01:44.14 bitrate=N/A speed=40.5x    frame= 2818 fps=912 q=-0.0 size=N/A time=00:01:57.53 bitrate=N/A speed=  38x    frame= 3189 fps=887 q=-0.0 size=N/A time=00:02:13.00 bitrate=N/A speed=  37x    frame= 3745 fps=910 q=-0.0 size=N/A time=00:02:36.19 bitrate=N/A speed=  38x    frame= 4116 fps=888 q=-0.0 size=N/A time=00:02:51.67 bitrate=N/A speed=  37x    frame= 4516 fps=878 q=-0.0 size=N/A time=00:03:08.35 bitrate=N/A speed=36.6x    frame= 4933 fps=870 q=-0.0 size=N/A time=00:03:25.74 bitrate=N/A speed=36.3x    frame= 5331 fps=861 q=-0.0 size=N/A time=00:03:42.34 bitrate=N/A speed=35.9x    frame= 5885 fps=879 q=-0.0 size=N/A time=00:04:05.45 bitrate=N/A speed=36.7x    frame= 6385 fps=884 q=-0.0 size=N/A time=00:04:26.30 bitrate=N/A speed=36.9x    frame= 6913 fps=895 q=-0.0 size=N/A time=00:04:48.32 bitrate=N/A speed=37.3x    frame= 7476 fps=906 q=-0.0 size=N/A time=00:05:11.81 bitrate=N/A speed=37.8x    frame= 8060 fps=920 q=-0.0 size=N/A time=00:05:36.16 bitrate=N/A speed=38.4x    frame= 8618 fps=928 q=-0.0 size=N/A time=00:05:59.44 bitrate=N/A speed=38.7x    frame= 9107 fps=930 q=-0.0 size=N/A time=00:06:19.83 bitrate=N/A speed=38.8x    frame= 9701 fps=941 q=-0.0 size=N/A time=00:06:44.61 bitrate=N/A speed=39.2x    frame=10157 fps=938 q=-0.0 size=N/A time=00:07:03.63 bitrate=N/A speed=39.1x    frame=10679 fps=941 q=-0.0 size=N/A time=00:07:25.40 bitrate=N/A speed=39.3x    frame=11195 fps=945 q=-0.0 size=N/A time=00:07:46.92 bitrate=N/A speed=39.4x    frame=11691 fps=945 q=-0.0 size=N/A time=00:08:07.61 bitrate=N/A speed=39.4x    frame=12088 fps=938 q=-0.0 size=N/A time=00:08:24.17 bitrate=N/A speed=39.1x    frame=12521 fps=934 q=-0.0 size=N/A time=00:08:42.23 bitrate=N/A speed=  39x    frame=12917 fps=928 q=-0.0 size=N/A time=00:08:58.74 bitrate=N/A speed=38.7x    frame=13353 fps=926 q=-0.0 size=N/A time=00:09:16.93 bitrate=N/A speed=38.6x    frame=13777 fps=922 q=-0.0 size=N/A time=00:09:34.61 bitrate=N/A speed=38.4x    frame=14121 fps=914 q=-0.0 size=N/A time=00:09:48.96 bitrate=N/A speed=38.1x    frame=14492 fps=907 q=-0.0 size=N/A time=00:10:04.43 bitrate=N/A speed=37.8x    frame=14945 fps=906 q=-0.0 size=N/A time=00:10:23.33 bitrate=N/A speed=37.8x    frame=15328 fps=901 q=-0.0 size=N/A time=00:10:39.30 bitrate=N/A speed=37.6x    frame=15692 fps=895 q=-0.0 size=N/A time=00:10:54.48 bitrate=N/A speed=37.3x    frame=16041 fps=889 q=-0.0 size=N/A time=00:11:09.04 bitrate=N/A speed=37.1x    frame=16508 fps=890 q=-0.0 size=N/A time=00:11:28.52 bitrate=N/A speed=37.1x    frame=17090 fps=896 q=-0.0 size=N/A time=00:11:52.79 bitrate=N/A speed=37.4x    frame=17632 fps=900 q=-0.0 size=N/A time=00:12:15.40 bitrate=N/A speed=37.5x    frame=18140 fps=902 q=-0.0 size=N/A time=00:12:36.58 bitrate=N/A speed=37.6x    frame=18714 fps=907 q=-0.0 size=N/A time=00:13:00.52 bitrate=N/A speed=37.8x    frame=19298 fps=913 q=-0.0 size=N/A time=00:13:24.88 bitrate=N/A speed=38.1x    frame=19844 fps=916 q=-0.0 size=N/A time=00:13:47.66 bitrate=N/A speed=38.2x    frame=20426 fps=921 q=-0.0 size=N/A time=00:14:11.93 bitrate=N/A speed=38.4x    frame=20915 fps=921 q=-0.0 size=N/A time=00:14:32.32 bitrate=N/A speed=38.4x    frame=21219 fps=914 q=-0.0 size=N/A time=00:14:45.00 bitrate=N/A speed=38.1x    frame=21719 fps=915 q=-0.0 size=N/A time=00:15:05.86 bitrate=N/A speed=38.2x    frame=22102 fps=912 q=-0.0 size=N/A time=00:15:21.83 bitrate=N/A speed=  38x    frame=22489 fps=908 q=-0.0 size=N/A time=00:15:37.97 bitrate=N/A speed=37.9x    frame=22868 fps=905 q=-0.0 size=N/A time=00:15:53.78 bitrate=N/A speed=37.7x    frame=23296 fps=903 q=-0.0 size=N/A time=00:16:11.63 bitrate=N/A speed=37.7x    frame=23630 fps=898 q=-0.0 size=N/A time=00:16:25.56 bitrate=N/A speed=37.5x    frame=23956 fps=893 q=-0.0 size=N/A time=00:16:39.16 bitrate=N/A speed=37.3x    frame=24291 fps=888 q=-0.0 size=N/A time=00:16:53.13 bitrate=N/A speed=37.1x    frame=24569 fps=882 q=-0.0 size=N/A time=00:17:04.73 bitrate=N/A speed=36.8x    frame=24941 fps=879 q=-0.0 size=N/A time=00:17:20.24 bitrate=N/A speed=36.7x    frame=25324 fps=877 q=-0.0 size=N/A time=00:17:36.22 bitrate=N/A speed=36.6x    frame=25754 fps=876 q=-0.0 size=N/A time=00:17:54.15 bitrate=N/A speed=36.5x    frame=26149 fps=874 q=-0.0 size=N/A time=00:18:10.63 bitrate=N/A speed=36.5x    frame=26651 fps=876 q=-0.0 size=N/A time=00:18:31.56 bitrate=N/A speed=36.5x    frame=27168 fps=878 q=-0.0 size=N/A time=00:18:53.13 bitrate=N/A speed=36.6x    frame=27620 fps=878 q=-0.0 size=N/A time=00:19:11.98 bitrate=N/A speed=36.6x    frame=28183 fps=881 q=-0.0 size=N/A time=00:19:35.46 bitrate=N/A speed=36.8x    frame=28675 fps=883 q=-0.0 size=N/A time=00:19:55.98 bitrate=N/A speed=36.8x    frame=29203 fps=885 q=-0.0 size=N/A time=00:20:18.00 bitrate=N/A speed=36.9x    frame=29633 fps=884 q=-0.0 size=N/A time=00:20:35.94 bitrate=N/A speed=36.9x    frame=29954 fps=880 q=-0.0 size=N/A time=00:20:49.33 bitrate=N/A speed=36.7x    frame=30595 fps=885 q=-0.0 size=N/A time=00:21:16.06 bitrate=N/A speed=36.9x    frame=31191 fps=889 q=-0.0 size=N/A time=00:21:40.92 bitrate=N/A speed=37.1x    frame=31478 fps=884 q=-0.0 size=N/A time=00:21:52.89 bitrate=N/A speed=36.9x    frame=31742 fps=879 q=-0.0 size=N/A time=00:22:03.90 bitrate=N/A speed=36.7x    frame=32024 fps=875 q=-0.0 size=N/A time=00:22:15.66 bitrate=N/A speed=36.5x    frame=32350 fps=871 q=-0.0 size=N/A time=00:22:29.26 bitrate=N/A speed=36.3x    frame=32578 fps=865 q=-0.0 size=N/A time=00:22:38.77 bitrate=N/A speed=36.1x    frame=32817 fps=860 q=-0.0 size=N/A time=00:22:48.74 bitrate=N/A speed=35.9x    frame=33213 fps=859 q=-0.0 size=N/A time=00:23:05.25 bitrate=N/A speed=35.8x    frame=33685 fps=859 q=-0.0 size=N/A time=00:23:24.94 bitrate=N/A speed=35.8x    frame=34247 fps=862 q=-0.0 size=N/A time=00:23:48.38 bitrate=N/A speed=  36x    [Parsed_ssim_10 @ 000002a59c78aac0] SSIM Y:0.977905 (16.557039) U:0.987408 (18.998987) V:0.987233 (18.938963) All:0.981043 (17.222379)
[out#0/null @ 000002a59beaef00] video:14835KiB audio:270020KiB subtitle:0KiB other streams:0KiB global headers:0KiB muxing overhead: unknown
frame=34526 fps=864 q=-0.0 Lsize=N/A time=00:24:00.02 bitrate=N/A speed=  36x    
